<?xml version="1.0" standalone="no"?>
<!DOCTYPE svg PUBLIC "-//W3C//DTD SVG 20010904//EN"
 "http://www.w3.org/TR/2001/REC-SVG-20010904/DTD/svg10.dtd">
<svg version="1.0" xmlns="http://www.w3.org/2000/svg"
 width="1280.000000pt" height="1218.000000pt" viewBox="0 0 1280.000000 1218.000000"
 preserveAspectRatio="xMidYMid meet">
<g transform="translate(0.000000,1218.000000) scale(0.100000,-0.100000)"
fill="#000000" stroke="none">
<path d="M6373 12157 c-10 -13 -93 -259 -185 -548 -92 -288 -422 -1320 -732
-2292 -310 -973 -567 -1771 -570 -1774 -7 -7 -1847 -4 -3616 6 -1029 6 -1210
5 -1237 -7 -37 -16 -41 -32 -15 -54 9 -9 402 -292 872 -630 2618 -1880 3053
-2193 3057 -2204 3 -10 -685 -2108 -1388 -4229 -65 -198 -119 -368 -119 -376
0 -9 9 -24 19 -34 19 -17 76 24 1976 1420 1270 933 1962 1435 1974 1433 10 -2
890 -642 1955 -1423 1064 -781 1946 -1421 1959 -1423 13 -2 29 4 36 12 15 18
30 -32 -289 931 -287 866 -1090 3293 -1164 3520 l-56 170 23 21 c12 12 182
136 377 276 1959 1406 3509 2524 3528 2545 23 26 23 26 4 45 -19 20 -39 20
-1848 9 -2213 -13 -3015 -14 -3024 -4 -5 6 -1149 3574 -1456 4543 -15 49 -40
90 -54 90 -5 0 -17 -10 -27 -23z"/>
</g>
</svg>
